<?xml version="1.0" encoding="UTF-8" standalone="no"?>
<!-- Created with Inkscape (http://www.inkscape.org/) -->

<svg
   xmlns:dc="http://purl.org/dc/elements/1.1/"
   xmlns:cc="http://creativecommons.org/ns#"
   xmlns:rdf="http://www.w3.org/1999/02/22-rdf-syntax-ns#"
   xmlns:svg="http://www.w3.org/2000/svg"
   xmlns="http://www.w3.org/2000/svg"
   xmlns:sodipodi="http://sodipodi.sourceforge.net/DTD/sodipodi-0.dtd"
   xmlns:inkscape="http://www.inkscape.org/namespaces/inkscape"
   width="32"
   height="32"
   viewBox="0 0 8.4666666 8.466667"
   version="1.1"
   id="svg2833"
   inkscape:version="0.92.2 (5c3e80d, 2017-08-06)"
   sodipodi:docname="facebook.svg">
  <defs
     id="defs2827" />
  <sodipodi:namedview
     id="base"
     pagecolor="#ffffff"
     bordercolor="#666666"
     borderopacity="1.0"
     inkscape:pageopacity="0.0"
     inkscape:pageshadow="2"
     inkscape:zoom="11.2"
     inkscape:cx="8.5434474"
     inkscape:cy="17.662314"
     inkscape:document-units="mm"
     inkscape:current-layer="layer1"
     showgrid="false"
     units="px"
     inkscape:window-width="1920"
     inkscape:window-height="1017"
     inkscape:window-x="-8"
     inkscape:window-y="-8"
     inkscape:window-maximized="1" />
  <metadata
     id="metadata2830">
    <rdf:RDF>
      <cc:Work
         rdf:about="">
        <dc:format>image/svg+xml</dc:format>
        <dc:type
           rdf:resource="http://purl.org/dc/dcmitype/StillImage" />
        <dc:title></dc:title>
      </cc:Work>
    </rdf:RDF>
  </metadata>
  <g
     inkscape:label="Layer 1"
     inkscape:groupmode="layer"
     id="layer1"
     transform="translate(0,-288.53331)">
    <path
       id="path2007"
       d="M 7.14375,288.53331 H 1.32291 C 0.5924,288.53331 0,289.12598 0,289.85623 v 5.82083 c 0,0.73078 0.5924,1.32292 1.32291,1.32292 h 5.82084 c 0.73078,0 1.32291,-0.59214 1.32291,-1.32292 v -5.82083 c 0,-0.73025 -0.59213,-1.32292 -1.32291,-1.32292 z m -2.00343,4.23492 H 4.54713 c 0,0.94827 0,2.11508 0,2.11508 H 3.66818 c 0,0 0,-1.15543 0,-2.11508 H 3.25014 v -0.74718 h 0.41804 v -0.48366 c 0,-0.34581 0.16431,-0.88741 0.88715,-0.88741 l 0.65114,0.003 v 0.72548 c 0,0 -0.39582,0 -0.47255,0 -0.077,0 -0.18653,0.0386 -0.18653,0.20373 v 0.43921 h 0.67019 z"
       inkscape:connector-curvature="0"
       style="fill:#333;stroke-width:0.26458332" />
  </g>
</svg>
